<svg viewBox="0 0 24 24" xmlns="http://www.w3.org/2000/svg">
  <path d="M6.65189372,3.30689892 C6.65158996,1.4866009 5.14459385,-0.00597911538 3.31354956,1.8009217e-05 C1.50375765,0.0060878254 0,1.50812028 0,3.30991565 C0,5.10809095 1.50831173,6.61354237 3.31719283,6.62103714 C5.14378424,6.62832437 6.65229837,5.12910753 6.65189372,3.30689892 M0.758001533,15.9556673 C0.758001533,18.3006762 0.757697928,20.6455844 0.758203937,22.9906938 C0.758305139,23.6746882 1.0809365,23.9974789 1.76890638,23.9986856 C2.77323311,24.0004956 3.77755984,23.9993895 4.78178537,23.9990878 C5.61943273,23.9988867 5.92182373,23.6981182 5.92192493,22.8631865 C5.92222854,19.8994453 5.92202613,16.9358046 5.92202613,13.9720634 C5.92202613,12.2857084 5.92384776,10.5993535 5.92101411,8.91289793 C5.91990089,8.22990908 5.58806017,7.90249276 4.90859124,7.90198997 C3.85406841,7.9011855 2.79974799,7.9011855 1.74522516,7.90198997 C1.0700067,7.90259331 0.758406341,8.21452373 0.758203937,8.89067465 C0.757697928,11.2456387 0.758001533,13.6007033 0.758001533,15.9556673 M13.2837492,9.81781793 C13.2837492,9.40935199 13.2857732,9.092092 13.2833444,8.77473146 C13.2791951,8.22226669 12.960207,7.90329722 12.4063295,7.9023922 C11.2810666,7.90058216 10.1558037,7.90098439 9.03043963,7.90219108 C8.44255833,7.90289499 8.11820654,8.22045665 8.11800414,8.80640718 C8.11648611,13.5585696 8.11658731,18.3106314 8.11790294,23.0626932 C8.11800414,23.6728782 8.45095808,23.9972778 9.07233718,23.9984845 C10.157423,24.0005962 11.2425087,24.0003951 12.3276957,23.9986856 C12.970732,23.99768 13.2834456,23.6843418 13.283648,23.0430845 C13.2842552,20.6171266 13.28466,18.1911687 13.2834456,15.7652108 C13.283142,14.9853848 13.4520478,14.2451785 13.7900618,13.5414747 C14.285141,12.5111591 15.1919092,11.9940907 16.3532,12.0844922 C17.4405122,12.1689608 18.2034726,12.797045 18.482486,13.9270135 C18.6198168,14.4827967 18.7036119,15.0655294 18.7090768,15.6371001 C18.7327581,18.1127336 18.7179826,20.5887693 18.7187922,23.0646038 C18.7190958,23.6996266 19.018552,23.9974789 19.6562245,23.9985851 C20.7814874,24.0004956 21.9068515,24.0004956 23.0321144,23.9985851 C23.6651317,23.9975795 23.9982881,23.6763977 23.9984905,23.0395649 C23.9991989,20.4738316 24.0063842,17.9079978 23.981691,15.3424656 C23.9703564,14.1576932 23.9001223,12.9729207 23.5889268,11.81731 C23.067029,9.87805208 22.0058269,8.42820914 19.9566927,7.88962135 C18.7320496,7.56773571 17.4944527,7.5791993 16.2609039,7.83652681 C15.0420294,8.09093815 14.0575382,8.71851963 13.2837492,9.81781793"></path>
</svg>