<svg viewBox="0 0 76 25"  xmlns="http://www.w3.org/2000/svg">
  <rect fill="#EBE6FF" x="0" y="0" width="76" height="25" rx="2"></rect>
  <path d="M13.461,18.743 C15.8105,18.743 17.05,17.263 17.05,15.413 C17.05,13.859 15.9955,12.5825 14.682,12.379 C15.8475,12.1385 16.8095,11.1025 16.8095,9.5485 C16.8095,7.902 15.607,6.4035 13.2575,6.4035 L6.764,6.4035 L6.764,18.743 L13.461,18.743 Z M12.684,11.343 L9.391,11.343 L9.391,8.6605 L12.684,8.6605 C13.572,8.6605 14.127,9.234 14.127,10.011 C14.127,10.788 13.572,11.343 12.684,11.343 Z M12.7765,16.4675 L9.391,16.4675 L9.391,13.6 L12.7765,13.6 C13.8125,13.6 14.3675,14.266 14.3675,15.043 C14.3675,15.931 13.7755,16.4675 12.7765,16.4675 Z M31.8735,18.743 L31.8735,16.4305 L26.6565,16.4305 L26.6565,6.4035 L24.0295,6.4035 L24.0295,18.743 L31.8735,18.743 Z M44.0515,18.965 C47.7885,18.965 50.508,16.301 50.508,12.5825 C50.508,8.864 47.7885,6.2 44.0515,6.2 C40.333,6.2 37.6135,8.864 37.6135,12.5825 C37.6135,16.301 40.333,18.965 44.0515,18.965 Z M44.0515,16.634 C41.776,16.634 40.3145,14.8765 40.3145,12.5825 C40.3145,10.27 41.776,8.531 44.0515,8.531 C46.327,8.531 47.807,10.27 47.807,12.5825 C47.807,14.8765 46.327,16.634 44.0515,16.634 Z M63.3335,18.9835 C65.572,18.9835 67.3295,18.0585 68.5875,16.6525 L68.5875,11.9165 L62.7045,11.9165 L62.7045,14.2105 L65.9605,14.2105 L65.9605,15.6905 C65.461,16.153 64.425,16.634 63.3335,16.634 C61.095,16.634 59.467,14.9135 59.467,12.5825 C59.467,10.2515 61.095,8.531 63.3335,8.531 C64.647,8.531 65.7015,9.271 66.2565,10.1405 L68.4395,8.9565 C67.5145,7.495 65.905,6.2 63.3335,6.2 C59.726,6.2 56.766,8.679 56.766,12.5825 C56.766,16.4675 59.726,18.9835 63.3335,18.9835 Z" fill="#3F20BA"></path>
</svg>